<?xml version="1.0" encoding="UTF-8"?>
<svg id="Capa_2" data-name="Capa 2" xmlns="http://www.w3.org/2000/svg" viewBox="0 0 877.35 195.63">
  <defs>
    <style>
      .cls-1 {
        fill: #f7931e;
      }

      .cls-1, .cls-2 {
        stroke-width: 0px;
      }

      .cls-2 {
        fill: #003053;
      }
    </style>
  </defs>
  <g id="Capa_1-2" data-name="Capa 1">
    <path class="cls-2" d="M189.57,84.41v-36.48c0-3.79-2.2-5.99-5.99-5.99h-7.99c-3.79,0-5.99,2.2-5.99,5.99v36.48h19.97Z"/>
    <path class="cls-2" d="M254.68,84.41v-36.48c0-3.79-2.2-5.99-5.99-5.99h-7.99c-3.79,0-5.99,2.2-5.99,5.99v36.48h19.97Z"/>
    <path class="cls-2" d="M286.23,41.94h-7.99c-3.79,0-5.99,2.2-5.99,5.99v36.48h19.97v-36.48c0-3.79-2.2-5.99-5.99-5.99Z"/>
    <path class="cls-2" d="M282.23,29.36c6.99,0,12.38-4.99,12.38-11.98s-5.39-11.98-12.38-11.98-12.38,4.99-12.38,11.98,5.19,11.98,12.38,11.98Z"/>
    <path class="cls-2" d="M329.59,84.41c2.31-16.57,13.92-25.5,28.73-25.5s26.89,10.15,28.55,25.5h20.23c-1.82-26.65-22.48-44.67-48.98-44.67s-46.32,16.87-48.69,44.67h20.16Z"/>
    <path class="cls-2" d="M505.29,84.41v-36.48c0-3.79-2.2-5.99-5.99-5.99h-7.99c-3.79,0-5.99,2.2-5.99,5.99v36.48h19.97Z"/>
    <path class="cls-2" d="M440.19,84.41v-36.48c0-3.79-2.2-5.99-5.99-5.99h-7.99c-3.79,0-5.99,2.2-5.99,5.99v36.48h19.97Z"/>
    <path class="cls-2" d="M628.99,84.41c2.33-13.63,13.49-23.5,30.29-23.5h6.59c3.79,0,5.99-2.2,5.99-5.99v-6.99c0-3.79-2.2-5.99-5.99-5.99h-6.79c-28.63,0-47.9,18.35-50.43,42.47h20.34Z"/>
    <path class="cls-2" d="M698.62,84.41c1.66-15.35,13.73-25.5,28.55-25.5s26.42,8.93,28.73,25.5h20.16c-2.37-27.8-22.28-44.67-48.69-44.67s-47.16,18.02-48.98,44.67h20.23Z"/>
    <path class="cls-2" d="M812.24,84.41v-.34c0-15.58,8.79-25.16,22.57-25.16s22.57,9.59,22.57,25.16v.34h19.97v-.34c0-27.16-17.17-44.33-42.54-44.33s-42.54,17.17-42.54,44.33v.34h19.97Z"/>
    <path class="cls-2" d="M234.71,113.3v.26c0,15.58-8.99,25.16-22.57,25.16s-22.57-9.59-22.57-25.16v-.26h-19.97v.26c0,27.16,17.17,44.33,42.54,44.33s42.54-17.17,42.54-44.33v-.26h-19.97Z"/>
    <path class="cls-2" d="M272.25,113.3v36.4c0,3.79,2.2,5.99,5.99,5.99h7.99c3.79,0,5.99-2.2,5.99-5.99v-36.4h-19.97Z"/>
    <path class="cls-2" d="M386.27,113.3c-2.97,13.21-14.09,23.42-31.54,23.42h-6.99c-3.4,0-5.59,2.2-4.39,6.19l2.6,8.39c1,3.19,2.8,4.39,5.99,4.39h5.19c21.24,0,46.05-14.19,49.66-42.39h-20.51Z"/>
    <path class="cls-2" d="M309.19,113.3v76.34c0,3.79,2.2,5.99,5.99,5.99h7.99c3.79,0,5.99-2.2,5.99-5.99v-76.34h-19.97Z"/>
    <path class="cls-2" d="M485.32,113.3v.26c0,15.58-8.99,25.16-22.57,25.16s-22.56-9.59-22.56-25.16v-.26h-19.97v.26c0,27.16,17.17,44.33,42.54,44.33s42.54-17.17,42.54-44.33v-.26h-19.97Z"/>
    <path class="cls-2" d="M667.06,136.72h-7.79c-16.74,0-27.88-9.96-30.27-23.42h-20.36c2.53,24.39,21.8,42.39,50.43,42.39h3.99c3.4,0,5.79-1.8,6.79-4.99l2.2-7.19c1.2-3.99-.8-6.79-4.99-6.79Z"/>
    <path class="cls-2" d="M756.33,113.3v36.4c0,3.79,2.2,5.99,5.99,5.99h7.99c3.79,0,5.99-2.2,5.99-5.99v-36.4h-19.97Z"/>
    <path class="cls-2" d="M737.76,136.72h-6.99c-17.45,0-28.57-10.21-31.54-23.42h-20.51c3.61,28.2,28.42,42.39,49.66,42.39h5.19c3.2,0,4.99-1.2,5.99-4.39l2.6-8.39c1.2-3.99-1-6.19-4.39-6.19Z"/>
    <path class="cls-2" d="M857.38,113.3v36.4c0,3.79,2.2,5.99,5.99,5.99h7.99c3.79,0,5.99-2.2,5.99-5.99v-36.4h-19.97Z"/>
    <path class="cls-2" d="M792.27,113.3v36.4c0,3.79,2.2,5.99,5.99,5.99h7.99c3.79,0,5.99-2.2,5.99-5.99v-36.4h-19.97Z"/>
    <rect class="cls-1" x="169.6" y="95.1" width="707.74" height="7.54" rx="3.43" ry="3.43"/>
    <circle class="cls-1" cx="212.14" cy="98.87" r="20.58"/>
    <circle class="cls-1" cx="356.21" cy="98.87" r="20.58"/>
    <circle class="cls-1" cx="538.99" cy="98.87" r="20.58"/>
    <circle class="cls-1" cx="727.63" cy="98.87" r="20.58"/>
    <circle class="cls-1" cx="835.15" cy="98.87" r="20.58"/>
    <path class="cls-2" d="M0,81.84C0,36.48,31.84,0,77.38,0s76.27,35.54,76.27,76.93c0,22.91-9.95,41.15-23.43,57.52l-2.65,2.81c-2.21,3.04-4.42,3.74-7.74,3.74h-13.49c-4.86,0-6.41-3.51-3.09-7.48l3.32-3.27c13.49-14.5,23.66-30.86,23.66-51.91,0-31.57-22.55-55.42-52.84-55.42s-53.72,24.79-53.72,58.92c0,26.65,15.48,46.06,51.07,65.94l40.24,22.21c3.1,1.87,4.64,4.44,4.64,8.18v11.46c0,5.38-3.54,7.48-7.96,4.91l-44.44-25.02C26.75,146.6,0,122.05,0,81.84Z"/>
    <path class="cls-2" d="M517.08,150.28l-2.94-9.26c-1.36-4.74.9-7.68,5.64-7.68h14.9c15.13,0,39.29-7.9,39.29-32.06,0-12.42-5.19-21.68-25.29-39.97-21-18.97-32.52-31.39-32.52-52.16-.23-4.29,2.48-6.55,6.77-6.55h12.19c4.52,0,6.32,2.48,6.55,7,0,13.1,7.68,20.77,24.84,36.36,21.68,20.1,32.07,35.45,32.07,54.65,0,33.19-24.84,54.87-63.68,54.87h-10.84c-3.61,0-6.1-1.81-7-5.19Z"/>
  </g>
</svg>